<?xml version="1.0" encoding="iso-8859-1"?>
<!-- Generator: Adobe Illustrator 19.0.0, SVG Export Plug-In . SVG Version: 6.00 Build 0)  -->
<svg version="1.1" id="Layer_1" xmlns="http://www.w3.org/2000/svg" xmlns:xlink="http://www.w3.org/1999/xlink" x="0px" y="0px"
	 viewBox="0 0 512.001 512.001" style="enable-background:new 0 0 512.001 512.001;" xml:space="preserve">
<path style="fill:#E3DAB3;" d="M421.856,230.619h-18.206c1.312,8.27,2.001,16.746,2.001,25.382s-0.689,17.111-2.001,25.382h18.206
	c5.747,0,10.449-4.702,10.449-10.449v-29.865C432.305,235.321,427.603,230.619,421.856,230.619z"/>
<path style="fill:#EFBA50;" d="M153.91,445.689v48.027c0,5.747,4.702,10.449,10.449,10.449h156.625
	c5.747,0,10.449-4.702,10.449-10.449v-48.027H153.91z"/>
<path style="opacity:0.1;enable-background:new    ;" d="M187.036,493.715v-48.027H153.91v48.027
	c0,5.747,4.702,10.449,10.449,10.449h33.125C191.738,504.164,187.036,499.462,187.036,493.715z"/>
<path style="fill:#8AA5B6;" d="M242.672,417.805c-55.672,0-104.817-27.72-134.218-70.01l30.634,94.283
	c0.699,2.152,2.705,3.61,4.968,3.61h197.231c2.263,0,4.269-1.458,4.969-3.61l30.634-94.286
	C347.49,390.082,298.346,417.805,242.672,417.805z"/>
<path style="opacity:0.1;enable-background:new    ;" d="M171.615,442.079l-16.013-49.285
	c-18.606-11.697-34.657-27.033-47.148-44.999l30.634,94.283c0.699,2.152,2.705,3.61,4.968,3.61h32.527
	C174.32,445.689,172.314,444.231,171.615,442.079z"/>
<path style="fill:#EFBA50;" d="M331.432,64.785V18.287c0-5.747-4.702-10.449-10.449-10.449H164.359
	c-5.747,0-10.449,4.702-10.449,10.449v46.498H331.432z"/>
<path style="opacity:0.1;enable-background:new    ;" d="M187.036,64.785V18.287c0-5.747,4.702-10.449,10.449-10.449h-33.125
	c-5.747,0-10.449,4.702-10.449,10.449v46.498H187.036z"/>
<path style="fill:#8AA5B6;" d="M242.672,94.198c56.257,0,105.859,28.299,135.147,71.341l-31.564-97.145
	c-0.699-2.152-2.705-3.61-4.969-3.61H144.056c-2.263,0-4.269,1.458-4.969,3.61l-31.563,97.145
	C136.814,122.498,186.414,94.198,242.672,94.198z"/>
<ellipse style="fill:#EFBA50;" cx="242.676" cy="256.001" rx="162.983" ry="161.802"/>
<path style="opacity:0.1;enable-background:new    ;" d="M155.534,119.252l16.523-50.857c0.699-2.152,2.705-3.61,4.968-3.61h-32.97
	c-2.263,0-4.269,1.458-4.969,3.61l-31.563,97.145C120.128,147.019,136.496,131.234,155.534,119.252z"/>
<path style="opacity:0.1;enable-background:new    ;" d="M112.848,256.001c0-83.805,64.178-152.729,146.402-160.976
	c-5.451-0.546-10.982-0.828-16.577-0.828c-90.01,0-162.979,72.443-162.979,161.803s72.969,161.803,162.98,161.803
	c5.595,0,11.126-0.281,16.577-0.829C177.026,408.731,112.848,339.806,112.848,256.001z"/>
<path style="fill:#FFFFFF;" d="M242.672,376.054c-66.676,0-120.925-53.855-120.925-120.053s54.249-120.052,120.925-120.052
	s120.925,53.856,120.925,120.052S309.349,376.054,242.672,376.054z"/>
<path style="opacity:0.1;enable-background:new    ;" d="M154.165,256.001c0-60.74,45.677-111.083,104.717-118.97
	c-5.304-0.708-10.713-1.081-16.21-1.081c-66.676,0-120.925,53.855-120.925,120.053s54.249,120.052,120.925,120.052
	c5.496,0,10.906-0.374,16.21-1.081C199.842,367.084,154.165,316.741,154.165,256.001z"/>
<path style="fill:#E3DAB3;" d="M121.747,256.001c0-12.704,2.005-24.949,5.705-36.451l-37.029-21.378
	c-6.926,17.959-10.73,37.451-10.73,57.829s3.806,39.87,10.731,57.829l37.029-21.378C123.752,280.95,121.747,268.705,121.747,256.001
	z"/>
<path d="M275.089,248.164h-25.541v-37.286c0-4.328-3.508-7.837-7.837-7.837c-4.329,0-7.837,3.509-7.837,7.837v45.123
	c0,4.328,3.508,7.837,7.837,7.837h33.378c4.329,0,7.837-3.509,7.837-7.837S279.417,248.164,275.089,248.164z"/>
<path d="M421.856,222.783H410.19c-4.408-21.963-13.102-42.408-25.172-60.442l-31.31-96.367c-1.754-5.399-6.746-9.027-12.423-9.027
	h-2.018V18.286C339.268,8.203,331.064,0,320.982,0H164.359c-10.082,0-18.286,8.203-18.286,18.286v38.661h-2.018
	c-5.677,0-10.668,3.628-12.422,9.026l-31.311,96.37c-17.975,26.857-28.466,59.062-28.466,93.658
	c0,35.214,10.863,67.954,29.432,95.095l30.347,93.402c1.754,5.399,6.746,9.027,12.423,9.027h2.017v40.19
	c0,10.082,8.203,18.286,18.286,18.286h156.625c10.082,0,18.286-8.204,18.286-18.286v-40.19h2.019c5.677,0,10.668-3.628,12.422-9.026
	l30.363-93.447c12.561-18.371,21.597-39.302,26.119-61.833h11.665c10.082,0,18.286-8.203,18.286-18.286v-29.865
	C440.141,230.986,431.939,222.783,421.856,222.783z M161.747,18.287c0-1.416,1.196-2.612,2.612-2.612h156.625
	c1.416,0,2.612,1.196,2.612,2.612v10.449H161.747V18.287z M145.954,72.621h120.493c4.329,0,7.837-3.509,7.837-7.837
	s-3.508-7.837-7.837-7.837H161.747V44.409h161.849v12.539H296.75c-4.329,0-7.837,3.509-7.837,7.837s3.508,7.837,7.837,7.837h42.639
	l19.113,58.824c-30.465-27.967-71.168-45.084-115.83-45.084c-44.659,0-85.362,17.116-115.829,45.08L145.954,72.621z M87.53,256.001
	c0-16.13,2.518-31.687,7.174-46.309l23.492,13.563c-2.791,10.455-4.286,21.43-4.286,32.746s1.495,22.291,4.286,32.746L94.704,302.31
	C90.048,287.688,87.53,272.131,87.53,256.001z M323.595,467.593H243.46c-4.329,0-7.837,3.509-7.837,7.837s3.508,7.837,7.837,7.837
	h80.135v10.449c0,1.416-1.196,2.612-2.612,2.612H164.359c-1.416,0-2.612-1.196-2.612-2.612v-10.449h49.32
	c4.329,0,7.837-3.509,7.837-7.837s-3.508-7.837-7.837-7.837h-49.32v-14.067h161.849v14.067H323.595z M339.39,437.852H145.956
	l-18.399-56.631c30.387,27.576,70.806,44.421,115.116,44.421c44.315,0,84.736-16.853,115.123-44.436L339.39,437.852z
	 M242.672,409.968c-63.655,0-118.469-38.247-142.36-92.798l22.978-13.266c19.127,46.853,65.428,79.986,119.382,79.986
	c13.976,0,27.73-2.224,40.883-6.607c4.106-1.369,6.325-5.808,4.956-9.913c-1.37-4.106-5.806-6.325-9.913-4.957
	c-9.401,3.134-19.16,4.987-29.091,5.578v-6.58c0-4.328-3.508-7.837-7.837-7.837c-4.329,0-7.837,3.509-7.837,7.837v6.464
	c-25.234-1.945-48.168-12.149-66.063-27.878l4.635-4.602c3.071-3.049,3.09-8.011,0.04-11.082c-3.049-3.071-8.011-3.09-11.083-0.04
	l-4.625,4.591c-15.522-17.997-25.41-40.907-26.94-66.021h6.695c4.329,0,7.837-3.509,7.837-7.837c0-4.328-3.508-7.837-7.837-7.837
	h-6.559c1.974-25.036,12.265-47.785,28.127-65.532l4.719,4.684c1.529,1.518,3.524,2.276,5.521,2.276
	c2.015,0,4.029-0.772,5.561-2.316c3.049-3.071,3.031-8.033-0.04-11.082l-4.534-4.501c18.145-15.389,41.235-25.197,66.545-26.702
	v6.594c0,4.328,3.508,7.837,7.837,7.837c4.329,0,7.837-3.509,7.837-7.837v-6.465c25.235,1.945,48.17,12.149,66.064,27.879
	l-4.635,4.602c-3.071,3.049-3.09,8.011-0.04,11.082c1.532,1.543,3.546,2.315,5.561,2.315c1.996,0,3.993-0.759,5.521-2.276
	l4.625-4.59c15.521,17.997,25.408,40.907,26.939,66.02h-6.694c-4.328,0-7.837,3.509-7.837,7.837c0,4.328,3.509,7.837,7.837,7.837
	h6.549c-1.934,24.534-11.876,47.439-28.095,65.553l-4.741-4.706c-3.073-3.05-8.035-3.031-11.082,0.041
	c-3.05,3.071-3.031,8.033,0.04,11.082l4.544,4.511c-3.788,3.204-7.809,6.193-12.06,8.928c-3.639,2.342-4.693,7.19-2.351,10.83
	c2.343,3.64,7.19,4.693,10.83,2.352c36.912-23.742,58.95-63.901,58.95-107.422c0-70.518-57.762-127.889-128.762-127.889
	c-53.953,0-100.255,33.133-119.382,79.986l-22.977-13.266c23.889-54.551,78.704-92.798,142.359-92.798
	c85.546,0,155.142,69.069,155.142,153.967S328.218,409.968,242.672,409.968z M424.468,270.934c0,1.416-1.196,2.612-2.612,2.612
	h-9.278c0.599-5.769,0.909-11.621,0.909-17.545c0-5.924-0.31-11.776-0.909-17.545h9.278c1.416,0,2.612,1.196,2.612,2.612V270.934z"
	/>
<g>
</g>
<g>
</g>
<g>
</g>
<g>
</g>
<g>
</g>
<g>
</g>
<g>
</g>
<g>
</g>
<g>
</g>
<g>
</g>
<g>
</g>
<g>
</g>
<g>
</g>
<g>
</g>
<g>
</g>
</svg>
